<svg aria-hidden="true" style="position: absolute; width: 0; height: 0; overflow: hidden;" version="1.1" xmlns="http://www.w3.org/2000/svg" xmlns:xlink="http://www.w3.org/1999/xlink">
    <defs>
        <symbol id="icon-twitter1" viewBox="0 0 32 32">
            <path  d="M32 6.078c-1.19 0.522-2.458 0.868-3.78 1.036 1.36-0.812 2.398-2.088 2.886-3.626-1.268 0.756-2.668 1.29-4.16 1.588-1.204-1.282-2.92-2.076-4.792-2.076-3.632 0-6.556 2.948-6.556 6.562 0 0.52 0.044 1.020 0.152 1.496-5.454-0.266-10.28-2.88-13.522-6.862-0.566 0.982-0.898 2.106-0.898 3.316 0 2.272 1.17 4.286 2.914 5.452-1.054-0.020-2.088-0.326-2.964-0.808 0 0.020 0 0.046 0 0.072 0 3.188 2.274 5.836 5.256 6.446-0.534 0.146-1.116 0.216-1.72 0.216-0.42 0-0.844-0.024-1.242-0.112 0.85 2.598 3.262 4.508 6.13 4.57-2.232 1.746-5.066 2.798-8.134 2.798-0.538 0-1.054-0.024-1.57-0.090 2.906 1.874 6.35 2.944 10.064 2.944 12.072 0 18.672-10 18.672-18.668 0-0.29-0.010-0.57-0.024-0.848 1.302-0.924 2.396-2.078 3.288-3.406z"></path>
        </symbol>
        <symbol id="icon-twitter2" viewBox="0 0 32 32">
            <path fill="#fff" style="fill: var(--color2, #fff)" d="M32 6.078c-1.19 0.522-2.458 0.868-3.78 1.036 1.36-0.812 2.398-2.088 2.886-3.626-1.268 0.756-2.668 1.29-4.16 1.588-1.204-1.282-2.92-2.076-4.792-2.076-3.632 0-6.556 2.948-6.556 6.562 0 0.52 0.044 1.020 0.152 1.496-5.454-0.266-10.28-2.88-13.522-6.862-0.566 0.982-0.898 2.106-0.898 3.316 0 2.272 1.17 4.286 2.914 5.452-1.054-0.020-2.088-0.326-2.964-0.808 0 0.020 0 0.046 0 0.072 0 3.188 2.274 5.836 5.256 6.446-0.534 0.146-1.116 0.216-1.72 0.216-0.42 0-0.844-0.024-1.242-0.112 0.85 2.598 3.262 4.508 6.13 4.57-2.232 1.746-5.066 2.798-8.134 2.798-0.538 0-1.054-0.024-1.57-0.090 2.906 1.874 6.35 2.944 10.064 2.944 12.072 0 18.672-10 18.672-18.668 0-0.29-0.010-0.57-0.024-0.848 1.302-0.924 2.396-2.078 3.288-3.406z"></path>
        </symbol>
        <symbol id="icon-smartphone" viewBox="0 0 20 32">
            <path d="M17 0h-14c-1.654 0-3 1.346-3 3v26c0 1.654 1.346 3 3 3h14c1.654 0 3-1.346 3-3v-26c0-1.654-1.346-3-3-3zM3 2h14c0.552 0 1 0.448 1 1v21h-16v-21c0-0.552 0.448-1 1-1zM17 30h-14c-0.552 0-1-0.448-1-1v-3h16v3c0 0.552-0.448 1-1 1z"></path>
            <path d="M4.707 27.478c0.391 0.365 0.391 0.956 0 1.321s-1.024 0.365-1.414 0c-0.391-0.365-0.391-0.956 0-1.321s1.024-0.365 1.414 0z"></path>
        </symbol>
        <symbol id="icon-linkedin1" viewBox="0 0 32 32">
            <path d="M31.992 32v-0.001h0.008v-11.736c0-5.741-1.236-10.164-7.948-10.164-3.227 0-5.392 1.771-6.276 3.449h-0.093v-2.913h-6.364v21.364h6.627v-10.579c0-2.785 0.528-5.479 3.977-5.479 3.399 0 3.449 3.179 3.449 5.657v10.401h6.62z"></path>
            <path d="M0.528 10.636h6.635v21.364h-6.635v-21.364z"></path>
            <path d="M3.843 0c-2.121 0-3.843 1.721-3.843 3.843s1.721 3.879 3.843 3.879c2.121 0 3.843-1.757 3.843-3.879-0.001-2.121-1.723-3.843-3.843-3.843v0z"></path>
        </symbol>
        <symbol id="icon-linkedin2" viewBox="0 0 32 32">
            <path fill="#fff" style="fill: var(--color2, #fff)" d="M31.992 32v-0.001h0.008v-11.736c0-5.741-1.236-10.164-7.948-10.164-3.227 0-5.392 1.771-6.276 3.449h-0.093v-2.913h-6.364v21.364h6.627v-10.579c0-2.785 0.528-5.479 3.977-5.479 3.399 0 3.449 3.179 3.449 5.657v10.401h6.62z"></path>
            <path fill="#fff" style="fill: var(--color2, #fff)" d="M0.528 10.636h6.635v21.364h-6.635v-21.364z"></path>
            <path fill="#fff" style="fill: var(--color2, #fff)" d="M3.843 0c-2.121 0-3.843 1.721-3.843 3.843s1.721 3.879 3.843 3.879c2.121 0 3.843-1.757 3.843-3.879-0.001-2.121-1.723-3.843-3.843-3.843v0z"></path>
        </symbol>
        <symbol id="icon-instagram1" viewBox="0 0 32 32">
            <path d="M31.969 9.408c-0.075-1.7-0.35-2.869-0.744-3.882-0.406-1.075-1.031-2.038-1.85-2.838-0.8-0.813-1.769-1.444-2.832-1.844-1.019-0.394-2.182-0.669-3.882-0.744-1.713-0.081-2.257-0.1-6.601-0.1s-4.888 0.019-6.595 0.094c-1.7 0.075-2.869 0.35-3.882 0.744-1.075 0.406-2.038 1.031-2.838 1.85-0.813 0.8-1.444 1.769-1.844 2.832-0.394 1.019-0.669 2.182-0.744 3.882-0.081 1.713-0.1 2.257-0.1 6.601s0.019 4.888 0.094 6.595c0.075 1.7 0.35 2.869 0.744 3.882 0.406 1.075 1.038 2.038 1.85 2.838 0.8 0.813 1.769 1.444 2.832 1.844 1.019 0.394 2.182 0.669 3.882 0.744 1.706 0.075 2.25 0.094 6.595 0.094s4.888-0.019 6.595-0.094c1.7-0.075 2.869-0.35 3.882-0.744 2.151-0.832 3.851-2.532 4.682-4.682 0.394-1.019 0.669-2.182 0.744-3.882 0.075-1.707 0.094-2.251 0.094-6.595s-0.006-4.888-0.081-6.595zM29.087 22.473c-0.069 1.563-0.331 2.407-0.55 2.969-0.538 1.394-1.644 2.5-3.038 3.038-0.563 0.219-1.413 0.481-2.969 0.55-1.688 0.075-2.194 0.094-6.464 0.094s-4.782-0.019-6.464-0.094c-1.563-0.069-2.407-0.331-2.969-0.55-0.694-0.256-1.325-0.663-1.838-1.194-0.531-0.519-0.938-1.144-1.194-1.838-0.219-0.563-0.481-1.413-0.55-2.969-0.075-1.688-0.094-2.194-0.094-6.464s0.019-4.782 0.094-6.464c0.069-1.563 0.331-2.407 0.55-2.969 0.256-0.694 0.663-1.325 1.2-1.838 0.519-0.531 1.144-0.938 1.838-1.194 0.563-0.219 1.413-0.481 2.969-0.55 1.688-0.075 2.194-0.094 6.464-0.094 4.276 0 4.782 0.019 6.464 0.094 1.563 0.069 2.407 0.331 2.969 0.55 0.694 0.256 1.325 0.662 1.838 1.194 0.531 0.519 0.938 1.144 1.194 1.838 0.219 0.563 0.481 1.413 0.55 2.969 0.075 1.688 0.094 2.194 0.094 6.464s-0.019 4.77-0.094 6.458z"></path>
            <path d="M16.059 7.783c-4.538 0-8.22 3.682-8.22 8.22s3.682 8.22 8.22 8.22c4.538 0 8.22-3.682 8.22-8.22s-3.682-8.22-8.22-8.22zM16.059 21.335c-2.944 0-5.332-2.388-5.332-5.332s2.388-5.332 5.332-5.332c2.944 0 5.332 2.388 5.332 5.332s-2.388 5.332-5.332 5.332z"></path>
            <path d="M26.524 7.458c0 1.060-0.859 1.919-1.919 1.919s-1.919-0.859-1.919-1.919c0-1.060 0.859-1.919 1.919-1.919s1.919 0.859 1.919 1.919z"></path>
        </symbol>
        <symbol id="icon-instagram2" viewBox="0 0 32 32">
            <path fill="#fff" style="fill: var(--color2, #fff)" d="M31.969 9.408c-0.075-1.7-0.35-2.869-0.744-3.882-0.406-1.075-1.031-2.038-1.85-2.838-0.8-0.813-1.769-1.444-2.832-1.844-1.019-0.394-2.182-0.669-3.882-0.744-1.713-0.081-2.257-0.1-6.601-0.1s-4.888 0.019-6.595 0.094c-1.7 0.075-2.869 0.35-3.882 0.744-1.075 0.406-2.038 1.031-2.838 1.85-0.813 0.8-1.444 1.769-1.844 2.832-0.394 1.019-0.669 2.182-0.744 3.882-0.081 1.713-0.1 2.257-0.1 6.601s0.019 4.888 0.094 6.595c0.075 1.7 0.35 2.869 0.744 3.882 0.406 1.075 1.038 2.038 1.85 2.838 0.8 0.813 1.769 1.444 2.832 1.844 1.019 0.394 2.182 0.669 3.882 0.744 1.706 0.075 2.25 0.094 6.595 0.094s4.888-0.019 6.595-0.094c1.7-0.075 2.869-0.35 3.882-0.744 2.151-0.832 3.851-2.532 4.682-4.682 0.394-1.019 0.669-2.182 0.744-3.882 0.075-1.707 0.094-2.251 0.094-6.595s-0.006-4.888-0.081-6.595zM29.087 22.473c-0.069 1.563-0.331 2.407-0.55 2.969-0.538 1.394-1.644 2.5-3.038 3.038-0.563 0.219-1.413 0.481-2.969 0.55-1.688 0.075-2.194 0.094-6.464 0.094s-4.782-0.019-6.464-0.094c-1.563-0.069-2.407-0.331-2.969-0.55-0.694-0.256-1.325-0.663-1.838-1.194-0.531-0.519-0.938-1.144-1.194-1.838-0.219-0.563-0.481-1.413-0.55-2.969-0.075-1.688-0.094-2.194-0.094-6.464s0.019-4.782 0.094-6.464c0.069-1.563 0.331-2.407 0.55-2.969 0.256-0.694 0.663-1.325 1.2-1.838 0.519-0.531 1.144-0.938 1.838-1.194 0.563-0.219 1.413-0.481 2.969-0.55 1.688-0.075 2.194-0.094 6.464-0.094 4.276 0 4.782 0.019 6.464 0.094 1.563 0.069 2.407 0.331 2.969 0.55 0.694 0.256 1.325 0.662 1.838 1.194 0.531 0.519 0.938 1.144 1.194 1.838 0.219 0.563 0.481 1.413 0.55 2.969 0.075 1.688 0.094 2.194 0.094 6.464s-0.019 4.77-0.094 6.458z"></path>
            <path fill="#fff" style="fill: var(--color2, #fff)" d="M16.059 7.783c-4.538 0-8.22 3.682-8.22 8.22s3.682 8.22 8.22 8.22c4.539 0 8.22-3.682 8.22-8.22s-3.682-8.22-8.22-8.22zM16.059 21.335c-2.944 0-5.332-2.388-5.332-5.332s2.388-5.332 5.332-5.332c2.944 0 5.332 2.388 5.332 5.332s-2.388 5.332-5.332 5.332z"></path>
            <path fill="#fff" style="fill: var(--color2, #fff)" d="M26.524 7.458c0 1.060-0.859 1.919-1.919 1.919s-1.919-0.859-1.919-1.919c0-1.060 0.859-1.919 1.919-1.919s1.919 0.859 1.919 1.919z"></path>
        </symbol>
        <symbol id="icon-facebook1" viewBox="0 0 32 32">
            <path d="M21.329 5.313h2.921v-5.088c-0.504-0.069-2.237-0.225-4.256-0.225-4.212 0-7.097 2.649-7.097 7.519v4.481h-4.648v5.688h4.648v14.312h5.699v-14.311h4.46l0.708-5.688h-5.169v-3.919c0.001-1.644 0.444-2.769 2.735-2.769z"></path>
        </symbol>
        <symbol id="icon-facebook2" viewBox="0 0 32 32">
            <path fill="#fff" style="fill: var(--color2, #fff)" d="M21.329 5.313h2.921v-5.088c-0.504-0.069-2.237-0.225-4.256-0.225-4.212 0-7.097 2.649-7.097 7.519v4.481h-4.648v5.688h4.648v14.312h5.699v-14.311h4.46l0.708-5.688h-5.169v-3.919c0.001-1.644 0.444-2.769 2.735-2.769z"></path>
        </symbol>
        <symbol id="icon-envelope" viewBox="0 0 43 32">
            <path d="M38.667 0h-34.667c-2.206 0-4 1.794-4 4v24c0 2.206 1.794 4 4 4h34.667c2.206 0 4-1.794 4-4v-24c0-2.206-1.794-4-4-4zM38.667 2.667c0.181 0 0.353 0.038 0.511 0.103l-17.844 15.466-17.844-15.466c0.158-0.066 0.33-0.103 0.511-0.103h34.667zM38.667 29.333h-34.667c-0.736 0-1.333-0.598-1.333-1.333v-22.413l17.793 15.421c0.251 0.217 0.563 0.326 0.874 0.326s0.622-0.108 0.874-0.326l17.793-15.421v22.413c0 0.736-0.598 1.333-1.333 1.333z"></path>
        </symbol>
        <symbol id="icon-logo6" viewBox="0 0 61 32">
            <path d="M31.088 15.096c-0.288-0.421-0.426-0.918-0.393-1.419v-2.057c0-0.63 0.13-1.11 0.391-1.437s0.709-0.491 1.344-0.49c0.597 0 1.020 0.139 1.271 0.418 0.273 0.356 0.406 0.791 0.376 1.23v0.483h-1.067v-0.49c0.004-0.16-0.007-0.321-0.031-0.479-0.015-0.108-0.069-0.209-0.153-0.285-0.11-0.082-0.248-0.121-0.387-0.111-0.146-0.010-0.291 0.031-0.407 0.117-0.093 0.084-0.155 0.194-0.177 0.314-0.031 0.168-0.045 0.338-0.042 0.508v2.496c-0.017 0.241 0.030 0.482 0.137 0.701 0.053 0.074 0.127 0.133 0.213 0.17s0.182 0.051 0.275 0.039c0.137 0.011 0.272-0.030 0.378-0.113 0.087-0.082 0.143-0.188 0.159-0.303 0.025-0.166 0.036-0.333 0.033-0.5v-0.506h1.067v0.462c0.030 0.458-0.1 0.912-0.369 1.293-0.245 0.305-0.663 0.458-1.277 0.458s-1.078-0.163-1.341-0.502z"></path>
            <path d="M35.532 15.117c-0.27-0.32-0.404-0.787-0.404-1.404v-2.163c0-0.611 0.135-1.073 0.404-1.387s0.72-0.47 1.353-0.469c0.628 0 1.076 0.156 1.346 0.469 0.27 0.314 0.407 0.776 0.407 1.387v2.163c0 0.611-0.137 1.080-0.411 1.402s-0.72 0.483-1.341 0.483c-0.621 0-1.081-0.163-1.353-0.481zM37.382 14.598c0.097-0.2 0.141-0.42 0.128-0.64v-2.649c0.012-0.216-0.031-0.431-0.126-0.628-0.054-0.076-0.13-0.136-0.218-0.172s-0.186-0.050-0.281-0.037c-0.096-0.013-0.194 0-0.282 0.037s-0.165 0.097-0.219 0.172c-0.097 0.196-0.141 0.412-0.128 0.628v2.661c-0.013 0.22 0.031 0.44 0.128 0.64 0.062 0.067 0.139 0.122 0.225 0.159s0.18 0.056 0.274 0.056 0.188-0.019 0.274-0.056c0.086-0.037 0.163-0.091 0.225-0.159v-0.013z"></path>
            <path d="M39.921 9.757h1.149l0.864 3.992 0.884-3.992h1.118l0.113 5.762h-0.827l-0.088-4.004-0.853 4.004h-0.663l-0.884-4.019-0.082 4.019h-0.835l0.104-5.762z"></path>
            <path d="M45.338 9.757h1.79c1.031 0 1.547 0.545 1.547 1.636 0 1.045-0.543 1.566-1.629 1.565h-0.61v2.561h-1.105l0.007-5.762zM46.868 12.219c0.109 0.013 0.22 0.004 0.325-0.028s0.201-0.084 0.283-0.154c0.127-0.195 0.183-0.423 0.159-0.651 0.006-0.176-0.012-0.352-0.053-0.523-0.016-0.057-0.043-0.111-0.081-0.158s-0.085-0.087-0.14-0.116c-0.153-0.070-0.323-0.101-0.493-0.092h-0.429v1.722h0.429z"></path>
            <path d="M50.269 9.757h1.187l1.218 5.762h-1.030l-0.241-1.328h-1.059l-0.248 1.328h-1.045l1.218-5.762zM51.283 13.522l-0.413-2.418-0.413 2.418h0.827z"></path>
            <path d="M53.657 9.757h0.773l1.481 3.287v-3.287h0.917v5.762h-0.736l-1.49-3.431v3.431h-0.948l0.002-5.762z"></path>
            <path d="M58.976 13.321l-1.231-3.557h1.036l0.751 2.285 0.705-2.285h1.014l-1.215 3.557v2.197h-1.061v-2.197z"></path>
            <path d="M32.794 18.037v0.301h-0.902v2.341h-0.378v-2.341h-0.906v-0.301h2.186z"></path>
            <path d="M35.621 20.68h-0.292c-0.030 0.002-0.059-0.007-0.082-0.025-0.022-0.015-0.039-0.036-0.049-0.061l-0.261-0.628h-1.251l-0.261 0.628c-0.007 0.026-0.021 0.051-0.040 0.071-0.023 0.018-0.052 0.026-0.082 0.025h-0.292l1.105-2.642h0.385l1.118 2.632zM33.791 19.699h1.043l-0.442-1.075c-0.033-0.081-0.060-0.165-0.082-0.249-0.016 0.050-0.029 0.098-0.042 0.14l-0.040 0.111-0.438 1.073z"></path>
            <path d="M37.526 20.42c0.069 0.003 0.139 0.003 0.208 0 0.060-0.006 0.119-0.016 0.177-0.031 0.054-0.013 0.107-0.029 0.159-0.048 0.049-0.019 0.097-0.042 0.148-0.065v-0.594h-0.442c-0.011 0.001-0.022-0.001-0.032-0.005s-0.020-0.009-0.028-0.016c-0.007-0.006-0.013-0.013-0.017-0.022s-0.006-0.017-0.005-0.026v-0.203h0.857v1.013c-0.070 0.047-0.144 0.089-0.221 0.126-0.079 0.037-0.161 0.067-0.245 0.090-0.090 0.025-0.183 0.043-0.276 0.054-0.107 0.011-0.215 0.017-0.323 0.017-0.191 0.002-0.38-0.032-0.557-0.098-0.165-0.063-0.316-0.157-0.442-0.276-0.123-0.12-0.22-0.263-0.285-0.418-0.070-0.175-0.104-0.361-0.102-0.548-0.002-0.188 0.031-0.375 0.099-0.552 0.064-0.157 0.161-0.299 0.285-0.419 0.126-0.119 0.276-0.212 0.442-0.274 0.189-0.067 0.39-0.101 0.592-0.098 0.103-0 0.206 0.008 0.307 0.023 0.090 0.014 0.178 0.036 0.263 0.067 0.077 0.027 0.151 0.063 0.221 0.105 0.068 0.041 0.132 0.087 0.192 0.138l-0.106 0.163c-0.008 0.015-0.021 0.027-0.036 0.036s-0.033 0.014-0.050 0.014c-0.024-0.001-0.048-0.008-0.069-0.021-0.033-0.017-0.069-0.038-0.108-0.063-0.047-0.028-0.097-0.052-0.148-0.071-0.066-0.025-0.134-0.045-0.203-0.059-0.093-0.016-0.187-0.024-0.281-0.023-0.146-0.002-0.291 0.023-0.427 0.073-0.123 0.047-0.234 0.118-0.325 0.209-0.092 0.095-0.162 0.207-0.206 0.328-0.099 0.286-0.099 0.595 0 0.881 0.048 0.124 0.124 0.238 0.221 0.333 0.091 0.091 0.201 0.162 0.323 0.209 0.141 0.046 0.289 0.063 0.438 0.052z"></path>
            <path d="M41.049 20.378h1.207v0.301h-1.576v-2.642h0.378l-0.009 2.341z"></path>
            <path d="M43.511 20.68h-0.378v-2.642h0.378v2.642z"></path>
            <path d="M44.916 18.050c0.022 0.012 0.042 0.029 0.057 0.048l1.616 1.992c-0.002-0.031-0.002-0.063 0-0.094 0-0.029 0-0.059 0-0.086v-1.883h0.329v2.653h-0.19c-0.028 0.002-0.056-0.003-0.082-0.015-0.023-0.013-0.043-0.030-0.060-0.050l-1.613-1.99c0 0.031 0 0.061 0 0.090s0 0.056 0 0.082v1.883h-0.316v-2.643h0.197c0.021 0 0.042 0.004 0.062 0.013z"></path>
            <path d="M49.701 18.037v0.291h-1.339v0.872h1.085v0.28h-1.085v0.902h1.339v0.291h-1.728v-2.636h1.728z"></path>
            <path d="M10.099 1.718l16.781 4.511v15.807l-16.781-4.509v-15.809zM9.023 0.371v17.924l18.931 5.090v-17.922l-18.931-5.092z"></path>
            <path d="M19.169 31.706l-18.933-5.095v-17.922l18.933 5.092v17.924z"></path>
            <path d="M9.337 1.515l16.562 4.454-7.043 6.67-16.564-4.456 7.046-6.668zM9.023 0.371l-8.787 8.318 18.933 5.092 8.785-8.318-18.931-5.092z"></path>
            <path d="M20.234 30.697l7.72-7.31-7.72-2.077v9.387z"></path>
        </symbol>
        <symbol id="icon-logo5" viewBox="0 0 40 32">
            <path d="M3.605 26.335c0.152 0.189 0.233 0.426 0.229 0.668 0.008 0.158-0.020 0.317-0.081 0.463s-0.155 0.277-0.273 0.382c-0.295 0.224-0.661 0.334-1.031 0.308h-1.812v-4.236h1.775c0.35-0.023 0.698 0.076 0.983 0.281 0.115 0.096 0.205 0.218 0.265 0.356s0.087 0.287 0.079 0.437c0.010 0.234-0.063 0.463-0.206 0.648-0.138 0.168-0.328 0.285-0.54 0.331 0.24 0.044 0.457 0.172 0.612 0.362zM1.479 25.696h0.759c0.172 0.013 0.344-0.037 0.482-0.141 0.057-0.052 0.101-0.116 0.13-0.188s0.040-0.149 0.033-0.226c0.005-0.077-0.006-0.154-0.034-0.225s-0.071-0.136-0.127-0.189c-0.143-0.107-0.319-0.157-0.497-0.143h-0.746v1.111zM2.795 27.321c0.061-0.053 0.109-0.119 0.14-0.194s0.045-0.156 0.039-0.236c0.005-0.082-0.010-0.163-0.041-0.239s-0.080-0.142-0.142-0.196c-0.148-0.11-0.331-0.165-0.515-0.153h-0.796v1.165h0.806c0.181 0.011 0.361-0.041 0.509-0.147z"></path>
            <path d="M7.232 28.157l-0.987-1.656h-0.371v1.656h-0.849v-4.236h1.608c0.405-0.028 0.806 0.101 1.119 0.36 0.225 0.23 0.36 0.533 0.382 0.854s-0.071 0.64-0.263 0.899c-0.198 0.228-0.469 0.38-0.767 0.43l1.051 1.693h-0.923zM5.874 25.924h0.695c0.482 0 0.724-0.214 0.724-0.642 0.005-0.087-0.008-0.175-0.039-0.257s-0.078-0.157-0.138-0.219c-0.152-0.127-0.349-0.189-0.546-0.172h-0.703l0.008 1.289z"></path>
            <path d="M11.875 27.304h-1.692l-0.299 0.853h-0.89l1.554-4.189h0.963l1.548 4.189h-0.89l-0.293-0.853zM11.648 26.662l-0.618-1.788-0.618 1.788h1.237z"></path>
            <path d="M17.685 28.157h-0.843l-1.89-2.881v2.881h-0.841v-4.236h0.841l1.89 2.897v-2.897h0.843v4.236z"></path>
            <path d="M22.496 27.143c-0.174 0.32-0.44 0.58-0.763 0.747-0.367 0.186-0.774 0.278-1.185 0.267h-1.501v-4.236h1.501c0.41-0.011 0.817 0.079 1.185 0.261 0.323 0.163 0.589 0.421 0.763 0.739 0.174 0.345 0.264 0.725 0.264 1.111s-0.090 0.767-0.264 1.111zM21.532 27.041c0.241-0.281 0.373-0.64 0.373-1.011s-0.132-0.73-0.373-1.011c-0.291-0.255-0.67-0.384-1.055-0.36h-0.585v2.742h0.585c0.385 0.024 0.765-0.105 1.055-0.36z"></path>
            <path d="M12.402 0.356c0 0 10.882 4.125 10.651 10.093v10.095c0 0-10.873-4.127-10.647-10.095l-0.004-10.093z"></path>
            <path d="M32.747 18.181c2.055-1.42 4.432-2.3 6.914-2.558v-3.16c-2.859 1.106-5.285 3.112-6.914 5.718z"></path>
            <path d="M31.513 19.133c1.682-3.401 4.598-6.025 8.148-7.333v-9.106c0 0-15.497 5.876-15.169 14.375v14.373c0 0 0.691-0.263 1.777-0.755 0-0.459 0-0.923 0.049-1.389 0.321-3.946 2.189-7.603 5.194-10.166z"></path>
            <path d="M30.039 24.473c0.081-0.997 0.263-1.983 0.542-2.943-1.871 2.214-3.005 4.96-3.24 7.854-0.023 0.273-0.035 0.546-0.041 0.828 0.88-0.424 1.905-0.954 2.981-1.577-0.275-1.369-0.356-2.77-0.241-4.162z"></path>
            <path d="M30.655 24.525c-0.103 1.259-0.039 2.527 0.192 3.769 4.234-2.544 8.991-6.474 8.808-11.223v-0.414c-3.025 0.34-5.855 1.668-8.056 3.779-0.515 1.309-0.833 2.687-0.944 4.090z"></path>
        </symbol>
        <symbol id="icon-logo4" viewBox="0 0 59 32">
            <path d="M9.331 9.866h-0.002c-1.666 0-3.017 1.316-3.017 2.94v0.002c0 1.624 1.351 2.94 3.017 2.94h0.002c1.666 0 3.017-1.316 3.017-2.94v-0.002c0-1.624-1.351-2.94-3.017-2.94z"></path>
            <path d="M31.602 8.926c-0.005-2.256-0.926-4.417-2.563-6.012s-3.855-2.493-6.169-2.499v0c-2.315 0.004-4.534 0.902-6.172 2.497s-2.559 3.758-2.564 6.014v12.438c0 0 17.465-1.896 17.467-12.436v-0.002z"></path>
            <path d="M0.196 25.446c0.004 1.569 0.646 3.073 1.784 4.183s2.682 1.736 4.292 1.74c1.61-0.005 3.153-0.63 4.291-1.739s1.78-2.613 1.785-4.182v-8.654c0 0-12.153 1.32-12.153 8.653zM6.272 26.997c-0.315 0-0.622-0.091-0.884-0.261s-0.466-0.413-0.586-0.696c-0.12-0.283-0.152-0.595-0.091-0.896s0.213-0.577 0.435-0.794c0.223-0.217 0.506-0.364 0.815-0.424s0.629-0.029 0.919 0.088c0.291 0.117 0.539 0.316 0.714 0.571s0.268 0.555 0.268 0.862c0.001 0.204-0.040 0.406-0.119 0.595s-0.197 0.36-0.345 0.505-0.324 0.259-0.517 0.338c-0.193 0.078-0.401 0.119-0.61 0.119v-0.006z"></path>
            <path d="M18.676 25.979h-1.243v1.284h-0.647v-3.142h2.046v0.524h-1.398v0.811h1.243v0.522zM21.788 25.763c0 0.309-0.055 0.581-0.164 0.814s-0.266 0.413-0.47 0.54c-0.203 0.127-0.436 0.19-0.699 0.19-0.26 0-0.493-0.063-0.697-0.188s-0.363-0.304-0.475-0.535c-0.112-0.233-0.169-0.501-0.17-0.803v-0.155c0-0.309 0.055-0.581 0.166-0.816 0.112-0.236 0.27-0.416 0.473-0.542 0.204-0.127 0.437-0.19 0.699-0.19s0.494 0.063 0.697 0.19c0.204 0.125 0.362 0.306 0.473 0.542 0.112 0.235 0.168 0.506 0.168 0.814v0.14zM21.132 25.62c0-0.329-0.059-0.58-0.177-0.751s-0.286-0.257-0.505-0.257c-0.217 0-0.385 0.085-0.503 0.255-0.118 0.168-0.178 0.416-0.179 0.742v0.153c0 0.321 0.059 0.57 0.177 0.747s0.288 0.265 0.509 0.265c0.217 0 0.384-0.085 0.501-0.255 0.116-0.171 0.175-0.42 0.177-0.747v-0.153zM23.888 26.438c0-0.122-0.043-0.216-0.13-0.28-0.086-0.066-0.242-0.135-0.466-0.207-0.224-0.073-0.402-0.145-0.533-0.216-0.357-0.193-0.535-0.452-0.535-0.779 0-0.17 0.047-0.321 0.142-0.453 0.096-0.134 0.234-0.238 0.412-0.313 0.18-0.075 0.381-0.112 0.604-0.112 0.224 0 0.424 0.041 0.6 0.123 0.176 0.081 0.311 0.195 0.408 0.343 0.098 0.148 0.147 0.317 0.147 0.505h-0.647c0-0.144-0.045-0.255-0.136-0.334-0.091-0.081-0.218-0.121-0.382-0.121-0.158 0-0.281 0.034-0.369 0.101-0.088 0.066-0.132 0.154-0.132 0.263 0 0.102 0.051 0.188 0.153 0.257 0.104 0.069 0.255 0.134 0.455 0.194 0.368 0.111 0.637 0.248 0.805 0.412s0.253 0.368 0.253 0.613c0 0.272-0.103 0.486-0.309 0.641-0.206 0.154-0.483 0.231-0.831 0.231-0.242 0-0.462-0.044-0.66-0.132-0.199-0.089-0.35-0.211-0.455-0.365-0.104-0.154-0.155-0.332-0.155-0.535h0.65c0 0.347 0.207 0.52 0.622 0.52 0.154 0 0.274-0.031 0.36-0.093 0.086-0.063 0.13-0.151 0.13-0.263zM27.343 24.645h-0.962v2.618h-0.647v-2.618h-0.95v-0.524h2.559v0.524zM29.604 25.901h-1.243v0.842h1.459v0.52h-2.106v-3.142h2.102v0.524h-1.454v0.749h1.243v0.507zM31.363 26.113h-0.516v1.15h-0.647v-3.142h1.167c0.371 0 0.658 0.083 0.859 0.248s0.302 0.399 0.302 0.701c0 0.214-0.047 0.393-0.14 0.537-0.092 0.142-0.232 0.256-0.421 0.341l0.68 1.284v0.030h-0.695l-0.589-1.15zM30.847 25.588h0.522c0.163 0 0.288-0.041 0.378-0.123 0.089-0.083 0.134-0.198 0.134-0.343 0-0.148-0.042-0.265-0.127-0.35-0.083-0.085-0.212-0.127-0.386-0.127h-0.52v0.943zM34.771 26.156v1.107h-0.647v-3.142h1.226c0.236 0 0.443 0.043 0.622 0.129 0.18 0.086 0.318 0.209 0.414 0.369 0.096 0.158 0.145 0.339 0.145 0.542 0 0.308-0.106 0.551-0.317 0.729-0.21 0.177-0.501 0.265-0.874 0.265h-0.568zM34.771 25.631h0.578c0.171 0 0.301-0.040 0.391-0.121 0.091-0.081 0.136-0.196 0.136-0.345 0-0.154-0.045-0.278-0.136-0.373s-0.216-0.144-0.376-0.147h-0.593v0.986zM38.867 25.901h-1.243v0.842h1.459v0.52h-2.106v-3.142h2.102v0.524h-1.454v0.749h1.243v0.507zM41.87 24.645h-0.962v2.618h-0.647v-2.618h-0.95v-0.524h2.559v0.524zM44.132 25.901h-1.243v0.842h1.459v0.52h-2.106v-3.142h2.102v0.524h-1.454v0.749h1.243v0.507zM45.891 26.113h-0.516v1.15h-0.647v-3.142h1.167c0.371 0 0.657 0.083 0.859 0.248s0.302 0.399 0.302 0.701c0 0.214-0.047 0.393-0.14 0.537-0.092 0.142-0.232 0.256-0.421 0.341l0.68 1.284v0.030h-0.695l-0.589-1.15zM45.375 25.588h0.522c0.163 0 0.288-0.041 0.378-0.123 0.089-0.083 0.134-0.198 0.134-0.343 0-0.148-0.042-0.265-0.127-0.35-0.083-0.085-0.212-0.127-0.386-0.127h-0.52v0.943zM49.18 26.438c0-0.122-0.043-0.216-0.129-0.28-0.086-0.066-0.242-0.135-0.466-0.207-0.224-0.073-0.402-0.145-0.533-0.216-0.357-0.193-0.535-0.452-0.535-0.779 0-0.17 0.047-0.321 0.142-0.453 0.096-0.134 0.234-0.238 0.412-0.313 0.18-0.075 0.381-0.112 0.604-0.112 0.224 0 0.424 0.041 0.6 0.123 0.175 0.081 0.311 0.195 0.408 0.343 0.098 0.148 0.147 0.317 0.147 0.505h-0.647c0-0.144-0.045-0.255-0.136-0.334-0.091-0.081-0.218-0.121-0.382-0.121-0.158 0-0.281 0.034-0.369 0.101-0.088 0.066-0.132 0.154-0.132 0.263 0 0.102 0.051 0.188 0.153 0.257 0.104 0.069 0.255 0.134 0.455 0.194 0.368 0.111 0.637 0.248 0.805 0.412s0.252 0.368 0.252 0.613c0 0.272-0.103 0.486-0.309 0.641-0.206 0.154-0.483 0.231-0.831 0.231-0.242 0-0.462-0.044-0.66-0.132-0.199-0.089-0.35-0.211-0.455-0.365-0.104-0.154-0.155-0.332-0.155-0.535h0.65c0 0.347 0.207 0.52 0.621 0.52 0.154 0 0.274-0.031 0.36-0.093 0.086-0.063 0.129-0.151 0.129-0.263z"></path>
        </symbol>
        <symbol id="icon-logo3" viewBox="0 0 31 32">
            <path d="M5.373 31.201c0.011 0 0.022 0.003 0.032 0.007s0.019 0.011 0.027 0.018l0.152 0.159c-0.118 0.129-0.263 0.231-0.426 0.301-0.191 0.076-0.397 0.113-0.604 0.108-0.195 0.004-0.388-0.031-0.568-0.101-0.163-0.065-0.309-0.162-0.428-0.285-0.122-0.128-0.216-0.278-0.277-0.441-0.066-0.182-0.099-0.373-0.097-0.565-0.003-0.194 0.033-0.386 0.104-0.567 0.066-0.164 0.166-0.314 0.294-0.441 0.129-0.124 0.284-0.222 0.455-0.287 0.187-0.069 0.385-0.103 0.585-0.101 0.186-0.004 0.371 0.027 0.544 0.092 0.15 0.062 0.288 0.148 0.407 0.255l-0.127 0.17c-0.009 0.012-0.020 0.022-0.032 0.031-0.015 0.010-0.033 0.014-0.051 0.013-0.020-0.001-0.039-0.008-0.055-0.018l-0.068-0.045-0.095-0.058c-0.041-0.021-0.083-0.040-0.127-0.056-0.056-0.019-0.114-0.034-0.172-0.045-0.074-0.013-0.15-0.019-0.225-0.018-0.144-0.002-0.287 0.024-0.421 0.076-0.125 0.048-0.237 0.12-0.33 0.213-0.094 0.098-0.167 0.214-0.214 0.339-0.053 0.144-0.080 0.295-0.078 0.448-0.002 0.155 0.024 0.309 0.078 0.455 0.046 0.125 0.118 0.239 0.21 0.338 0.087 0.092 0.194 0.163 0.315 0.209 0.124 0.049 0.256 0.073 0.39 0.072 0.077 0.001 0.155-0.004 0.231-0.014 0.125-0.015 0.245-0.056 0.351-0.121 0.053-0.033 0.103-0.071 0.15-0.112 0.019-0.018 0.045-0.028 0.072-0.029z"></path>
            <path d="M9.75 30.402c0.002 0.192-0.032 0.382-0.102 0.561-0.062 0.163-0.159 0.311-0.285 0.436s-0.279 0.222-0.448 0.286c-0.371 0.135-0.781 0.135-1.152 0-0.168-0.065-0.319-0.163-0.445-0.287-0.126-0.127-0.224-0.277-0.288-0.44-0.136-0.364-0.136-0.761 0-1.125 0.065-0.164 0.162-0.314 0.288-0.442 0.127-0.12 0.279-0.214 0.445-0.276 0.37-0.137 0.781-0.137 1.152 0 0.168 0.065 0.321 0.163 0.447 0.287 0.125 0.126 0.222 0.273 0.286 0.435 0.070 0.181 0.105 0.372 0.102 0.565zM9.352 30.402c0.003-0.153-0.021-0.306-0.072-0.451-0.042-0.125-0.111-0.24-0.203-0.338-0.089-0.093-0.198-0.166-0.32-0.213-0.27-0.099-0.568-0.099-0.837 0-0.122 0.047-0.231 0.12-0.32 0.213-0.093 0.097-0.162 0.212-0.205 0.338-0.096 0.294-0.096 0.609 0 0.903 0.043 0.125 0.112 0.24 0.205 0.338 0.089 0.092 0.198 0.164 0.32 0.211 0.27 0.096 0.567 0.096 0.837 0 0.122-0.047 0.231-0.119 0.32-0.211 0.091-0.098 0.16-0.213 0.203-0.338 0.051-0.145 0.075-0.298 0.072-0.451z"></path>
            <path d="M12.736 30.876l0.040 0.101c0.015-0.036 0.028-0.069 0.044-0.101 0.014-0.034 0.031-0.067 0.049-0.099l0.968-1.677c0.019-0.029 0.036-0.047 0.055-0.052 0.026-0.008 0.053-0.011 0.080-0.009h0.286v2.727h-0.339v-2.005c0-0.025 0-0.054 0-0.085-0.002-0.031-0.002-0.063 0-0.094l-0.974 1.7c-0.012 0.026-0.032 0.047-0.057 0.062s-0.054 0.023-0.083 0.023h-0.055c-0.030 0-0.058-0.007-0.083-0.022s-0.045-0.037-0.057-0.062l-1.002-1.711c0 0.032 0 0.065 0 0.098s0 0.061 0 0.087v2.005h-0.328v-2.722h0.286c0.027-0.002 0.054 0.002 0.080 0.009 0.024 0.011 0.042 0.030 0.053 0.052l0.989 1.679c0.020 0.031 0.036 0.064 0.049 0.097z"></path>
            <path d="M16.379 30.74v1.022h-0.379v-2.724h0.845c0.16-0.003 0.319 0.017 0.472 0.060 0.123 0.033 0.236 0.091 0.333 0.17 0.084 0.074 0.149 0.165 0.189 0.267 0.045 0.111 0.067 0.229 0.064 0.348 0.002 0.119-0.022 0.238-0.070 0.348-0.046 0.105-0.116 0.198-0.205 0.273-0.097 0.082-0.212 0.143-0.335 0.18-0.148 0.045-0.302 0.066-0.457 0.063l-0.459-0.007zM16.379 30.448h0.459c0.1 0.001 0.199-0.013 0.294-0.041 0.078-0.025 0.15-0.065 0.212-0.117 0.057-0.050 0.101-0.112 0.129-0.18 0.031-0.073 0.046-0.151 0.045-0.229 0.004-0.076-0.009-0.151-0.038-0.222s-0.075-0.134-0.133-0.186c-0.145-0.108-0.327-0.16-0.51-0.146h-0.459v1.123z"></path>
            <path d="M21.472 31.765h-0.299c-0.030 0.001-0.060-0.008-0.083-0.025-0.021-0.017-0.038-0.039-0.049-0.063l-0.258-0.659h-1.294l-0.267 0.659c-0.010 0.024-0.026 0.045-0.047 0.061-0.024 0.018-0.054 0.028-0.085 0.027h-0.299l1.137-2.728h0.394l1.152 2.728zM19.596 30.753h1.069l-0.451-1.11c-0.034-0.084-0.063-0.169-0.085-0.256l-0.044 0.143c-0.013 0.043-0.028 0.083-0.042 0.116l-0.447 1.108z"></path>
            <path d="M23.109 29.050c0.023 0.012 0.042 0.029 0.057 0.049l1.658 2.056c0-0.032 0-0.065 0-0.096s0-0.061 0-0.090v-1.931h0.339v2.728h-0.189c-0.027 0.001-0.054-0.005-0.078-0.016-0.023-0.013-0.044-0.030-0.061-0.051l-1.656-2.054c0.002 0.031 0.002 0.063 0 0.094 0 0.031 0 0.058 0 0.083v1.944h-0.339v-2.728h0.201c0.023-0.001 0.047 0.004 0.068 0.013z"></path>
            <path d="M27.956 30.681v1.083h-0.379v-1.083l-1.048-1.643h0.339c0.029-0.002 0.058 0.007 0.081 0.023 0.021 0.017 0.038 0.038 0.051 0.061l0.656 1.060c0.027 0.045 0.049 0.087 0.068 0.126s0.034 0.078 0.047 0.116l0.049-0.117c0.018-0.043 0.040-0.084 0.064-0.125l0.646-1.067c0.014-0.021 0.030-0.041 0.049-0.058 0.022-0.019 0.052-0.028 0.081-0.027h0.343l-1.050 1.65z"></path>
            <path d="M12.548 24.461c0.165 0.020 0.332 0.036 0.5 0.051 2.556-1.090 4.719-2.873 6.218-5.127s2.266-4.879 2.208-7.547l-2.817-2.684c0.573 2.84 0.305 5.776-0.774 8.48s-2.926 5.067-5.334 6.828z"></path>
            <path d="M11.542 24.336l0.076 0.014c2.574-1.754 4.536-4.203 5.633-7.031s1.278-5.904 0.52-8.832l-4.013-3.823c1.623 3.143 2.276 6.659 1.884 10.142s-1.814 6.787-4.101 9.53z"></path>
            <path d="M25.151 14.989c-0.682 2.931-2.337 5.575-4.721 7.538-0.696 0.577-1.447 1.090-2.243 1.534 1.941-0.544 3.725-1.505 5.215-2.809s2.645-2.917 3.377-4.714l-1.628-1.549z"></path>
            <path d="M24.513 14.558l-2.317-2.208c-0.044 2.517-0.795 4.977-2.175 7.123s-3.338 3.902-5.671 5.084h0.011c0.52-0 1.039-0.030 1.556-0.088 2.18-0.848 4.106-2.197 5.606-3.926s2.527-3.786 2.99-5.986z"></path>
            <path d="M11.878 3.052l-2.764-2.637c-2.471 0.91-4.596 2.509-6.098 4.589s-2.309 4.543-2.316 7.067v0c0.009 2.789 0.995 5.495 2.8 7.691s4.328 3.754 7.168 4.43c2.535-2.943 4.020-6.579 4.237-10.381s-0.843-7.57-3.027-10.758z"></path>
            <path d="M30.9 14.152c-0.010-3.309-1.394-6.48-3.85-8.819s-5.784-3.659-9.257-3.668c-1.605-0.002-3.196 0.281-4.693 0.832l16.925 16.125c0.58-1.425 0.876-2.941 0.875-4.469z"></path>
        </symbol>
        <symbol id="icon-logo2" viewBox="0 0 24 32">
            <path d="M10.425 2.061h0.082c0.152 0 0.316 0.015 0.478 0.029 0.716 0.050 1.427 0.158 2.126 0.321v-1.719c-0.72-0.181-1.454-0.298-2.194-0.349-0.281-0.021-0.58-0.035-0.887-0.043h-0.257c-1.485 0.006-2.964 0.196-4.403 0.568-1.639 0.409-3.212 1.048-4.672 1.9v17.043c1.406-0.764 2.902-1.347 4.453-1.735 1.225-0.312 2.476-0.505 3.738-0.574h0.050c0.211-0.011 0.422-0.017 0.639-0.018v-1.746c-1.639 0.021-3.27 0.238-4.859 0.646-0.588 0.153-1.155 0.317-1.688 0.501l-0.607 0.206v-13.289l0.26-0.125c1.981-0.94 4.124-1.486 6.312-1.61 0.018-0.001 0.036-0.001 0.055 0 0.241-0.012 0.484-0.018 0.723-0.018h0.273c0.126 0.003 0.252 0.006 0.378 0.014z"></path>
            <path d="M14.707 3.861c-0.399 0-0.794-0.014-1.175-0.043-0.455-0.034-0.923-0.089-1.366-0.163-0.27-0.046-0.536-0.101-0.794-0.16v16.848c1.093 0.271 2.215 0.403 3.34 0.394 1.485-0.006 2.964-0.196 4.403-0.566 1.639-0.409 3.212-1.049 4.673-1.9v-16.74c-1.406 0.764-2.901 1.347-4.452 1.737-1.513 0.389-3.068 0.588-4.629 0.594zM21.443 4.152l0.607-0.204v13.293l-0.26 0.125c-0.996 0.474-2.036 0.848-3.105 1.116-1.298 0.336-2.633 0.509-3.973 0.514-0.401 0-0.799-0.017-1.184-0.050l-0.416-0.037v-13.67l0.484 0.032c0.352 0.023 0.717 0.034 1.113 0.034 1.702-0.006 3.397-0.223 5.045-0.647 0.566-0.15 1.13-0.317 1.688-0.505z"></path>
            <path d="M1.878 25.636c-0.087-0.091-0.193-0.162-0.309-0.209s-0.241-0.069-0.367-0.064c-0.134-0.002-0.266 0.023-0.39 0.073-0.114 0.045-0.217 0.113-0.304 0.2s-0.152 0.191-0.196 0.305c-0.048 0.12-0.071 0.248-0.070 0.377v2.277c-0.005 0.16 0.025 0.32 0.090 0.467 0.054 0.117 0.131 0.221 0.228 0.305 0.091 0.077 0.198 0.132 0.313 0.162 0.111 0.031 0.225 0.047 0.34 0.047 0.127 0.001 0.252-0.026 0.367-0.079 0.114-0.050 0.217-0.121 0.304-0.211 0.085-0.088 0.152-0.192 0.199-0.305 0.049-0.115 0.073-0.238 0.073-0.363v-0.255h-0.595v0.203c0.002 0.069-0.010 0.138-0.035 0.203-0.019 0.048-0.049 0.092-0.087 0.128-0.037 0.030-0.079 0.052-0.125 0.066-0.040 0.013-0.082 0.021-0.125 0.021-0.053 0.006-0.107-0.002-0.156-0.023s-0.092-0.056-0.123-0.099c-0.056-0.091-0.084-0.198-0.079-0.305v-2.123c-0.004-0.118 0.021-0.235 0.073-0.34 0.031-0.048 0.075-0.086 0.126-0.111s0.109-0.034 0.165-0.027c0.051-0.002 0.102 0.009 0.149 0.031s0.086 0.056 0.117 0.097c0.067 0.087 0.101 0.195 0.099 0.305v0.197h0.589v-0.232c0.001-0.136-0.024-0.271-0.073-0.398-0.044-0.119-0.112-0.228-0.199-0.32z"></path>
            <path d="M5.415 25.61c-0.19-0.16-0.429-0.249-0.677-0.25-0.121 0.001-0.241 0.022-0.355 0.064-0.116 0.041-0.222 0.105-0.314 0.186-0.099 0.089-0.177 0.197-0.231 0.319-0.060 0.139-0.089 0.29-0.087 0.441v2.184c-0.004 0.154 0.025 0.306 0.087 0.447 0.054 0.117 0.133 0.222 0.231 0.305 0.091 0.084 0.198 0.15 0.314 0.192 0.114 0.042 0.234 0.064 0.355 0.064s0.242-0.022 0.355-0.064c0.118-0.043 0.228-0.108 0.322-0.192 0.095-0.085 0.171-0.189 0.225-0.305 0.061-0.141 0.091-0.294 0.087-0.447v-2.184c0.003-0.152-0.027-0.302-0.087-0.441-0.053-0.12-0.129-0.229-0.225-0.319zM5.137 28.554c0.005 0.058-0.003 0.117-0.024 0.172s-0.053 0.104-0.095 0.144c-0.079 0.066-0.178 0.102-0.28 0.102s-0.202-0.036-0.28-0.102c-0.042-0.040-0.074-0.090-0.095-0.144s-0.029-0.113-0.024-0.172v-2.184c-0.005-0.058 0.003-0.117 0.024-0.172s0.053-0.104 0.095-0.144c0.079-0.066 0.178-0.102 0.28-0.102s0.202 0.036 0.28 0.102c0.042 0.040 0.074 0.090 0.095 0.144s0.029 0.113 0.024 0.172v2.184z"></path>
            <path d="M10.059 29.529v-4.135h-0.572l-0.752 2.189h-0.011l-0.758-2.189h-0.566v4.135h0.591v-2.515h0.011l0.578 1.778h0.295l0.583-1.778h0.011v2.515h0.591z"></path>
            <path d="M13.414 25.684c-0.091-0.102-0.206-0.18-0.334-0.226-0.138-0.045-0.283-0.067-0.428-0.064h-0.878v4.135h0.589v-1.615h0.304c0.184 0.008 0.367-0.031 0.531-0.113 0.134-0.074 0.246-0.183 0.323-0.316 0.068-0.11 0.114-0.232 0.135-0.36 0.023-0.156 0.034-0.313 0.032-0.47 0.006-0.199-0.014-0.397-0.058-0.591-0.039-0.143-0.114-0.274-0.217-0.38zM13.111 26.945c-0.003 0.075-0.021 0.148-0.055 0.215-0.034 0.064-0.087 0.114-0.152 0.145-0.087 0.039-0.183 0.057-0.278 0.052h-0.269v-1.406h0.304c0.091-0.005 0.183 0.013 0.266 0.052 0.061 0.035 0.109 0.088 0.138 0.153 0.032 0.073 0.050 0.151 0.052 0.23 0 0.087 0 0.179 0 0.275s0.006 0.195 0 0.284h-0.006z"></path>
            <path d="M16.205 25.394h-0.483l-0.911 4.135h0.589l0.173-0.888h0.803l0.173 0.888h0.589l-0.934-4.135zM15.662 28.078l0.29-1.499h0.011l0.288 1.499h-0.589z"></path>
            <path d="M20.012 27.885h-0.011l-0.89-2.491h-0.566v4.135h0.589v-2.486h0.012l0.9 2.486h0.554v-4.135h-0.589v2.491z"></path>
            <path d="M23.611 25.394l-0.474 1.644h-0.012l-0.474-1.644h-0.624l0.809 2.387v1.747h0.589v-1.747l0.809-2.387h-0.624z"></path>
            <path d="M0.235 30.696h0.284v0.797h0.193v-0.797h0.282v-0.163h-0.759v0.163z"></path>
            <path d="M2.622 30.533l-0.372 0.96h0.205l0.079-0.218h0.383l0.082 0.218h0.21l-0.381-0.96h-0.205zM2.592 31.113l0.131-0.356 0.131 0.356h-0.261z"></path>
            <path d="M4.982 31.139h0.222v0.124c-0.065 0.052-0.145 0.080-0.228 0.081-0.039 0.002-0.077-0.005-0.113-0.021s-0.066-0.040-0.091-0.071c-0.051-0.073-0.076-0.161-0.071-0.25 0-0.214 0.093-0.32 0.276-0.32 0.048-0.005 0.097 0.008 0.137 0.036s0.068 0.069 0.080 0.117l0.19-0.037c-0.041-0.188-0.176-0.282-0.407-0.282-0.123-0.003-0.243 0.041-0.336 0.124-0.048 0.048-0.086 0.106-0.11 0.169s-0.034 0.132-0.029 0.2c-0.006 0.131 0.038 0.26 0.123 0.36 0.047 0.049 0.104 0.086 0.167 0.11s0.13 0.035 0.198 0.030c0.15 0.004 0.296-0.051 0.407-0.153v-0.378h-0.416v0.162z"></path>
            <path d="M7.391 30.533h-0.194v0.96h0.673v-0.163h-0.478v-0.797z"></path>
            <path d="M9.429 30.533h-0.194v0.96h0.194v-0.96z"></path>
            <path d="M11.421 31.174l-0.393-0.641h-0.188v0.96h0.181v-0.627l0.386 0.627h0.193v-0.96h-0.178v0.641z"></path>
            <path d="M13.222 31.070h0.478v-0.163h-0.478v-0.211h0.515v-0.163h-0.709v0.96h0.729v-0.163h-0.534v-0.259z"></path>
            <path d="M17.588 30.912h-0.378v-0.378h-0.193v0.96h0.193v-0.42h0.378v0.42h0.193v-0.96h-0.193v0.378z"></path>
            <path d="M19.4 31.070h0.48v-0.163h-0.48v-0.211h0.516v-0.163h-0.709v0.96h0.727v-0.163h-0.534v-0.259z"></path>
            <path d="M21.856 31.070c0.167-0.026 0.252-0.114 0.252-0.267 0.005-0.041-0.001-0.082-0.018-0.12s-0.043-0.070-0.076-0.094c-0.087-0.044-0.184-0.063-0.281-0.056h-0.407v0.96h0.193v-0.401h0.038c0.041-0.003 0.082 0.005 0.12 0.021 0.028 0.017 0.052 0.042 0.068 0.070l0.21 0.305h0.231l-0.117-0.188c-0.052-0.093-0.125-0.172-0.213-0.23zM21.662 30.938h-0.143v-0.241h0.152c0.066-0.005 0.133 0.002 0.196 0.023 0.014 0.012 0.025 0.028 0.032 0.045s0.011 0.036 0.010 0.055c-0.001 0.019-0.006 0.037-0.015 0.054s-0.021 0.031-0.037 0.042c-0.063 0.019-0.13 0.027-0.196 0.023z"></path>
            <path d="M23.709 31.070h0.478v-0.163h-0.478v-0.211h0.516v-0.163h-0.711v0.96h0.729v-0.163h-0.534v-0.259z"></path>
        </symbol>
        <symbol id="icon-logo1" viewBox="0 0 29 32">
            <path  d="M4.32 0.326l4.644 4.396h12.954v12.264l4.644 4.396v-21.056h-22.242z"></path>
            <path  d="M0.507 4.537v20.455h21.607v-8.131l-13.013-12.319-8.594-0.005zM17.998 22h-14.072v-13.757h0.995v12.825h13.077v0.932z"></path>
            <path fill=""style="fill: var()" d="M6.729 28.745l0.52-1.070h0.434l-0.757 1.427v0.832h-0.394v-0.832l-0.759-1.427h0.436l0.52 1.070zM8.96 29.408h-0.875l-0.183 0.526h-0.408l0.853-2.259h0.352l0.855 2.259h-0.41l-0.185-0.526zM8.195 29.091h0.655l-0.327-0.937-0.327 0.937zM10.507 29.324c0-0.104 0.028-0.2 0.085-0.287s0.169-0.192 0.337-0.312c-0.088-0.111-0.149-0.205-0.185-0.282s-0.051-0.153-0.051-0.225c0-0.177 0.054-0.317 0.161-0.419 0.108-0.103 0.252-0.155 0.434-0.155 0.164 0 0.299 0.049 0.403 0.146 0.105 0.096 0.158 0.216 0.158 0.358 0 0.094-0.024 0.181-0.071 0.261-0.048 0.079-0.126 0.157-0.234 0.236l-0.154 0.112 0.436 0.515c0.063-0.124 0.095-0.262 0.095-0.414h0.327c0 0.278-0.065 0.506-0.195 0.684l0.332 0.393h-0.438l-0.127-0.15c-0.161 0.121-0.354 0.182-0.577 0.182s-0.402-0.059-0.537-0.177c-0.133-0.119-0.2-0.274-0.2-0.464zM11.255 29.664c0.127 0 0.246-0.042 0.357-0.127l-0.493-0.582-0.048 0.034c-0.124 0.094-0.186 0.202-0.186 0.323 0 0.104 0.034 0.189 0.101 0.254s0.157 0.098 0.27 0.098zM11.047 28.209c0 0.087 0.053 0.196 0.16 0.327l0.172-0.118 0.048-0.039c0.064-0.057 0.096-0.13 0.096-0.219 0-0.059-0.022-0.109-0.067-0.15-0.044-0.042-0.101-0.064-0.169-0.064-0.073 0-0.132 0.025-0.175 0.074s-0.065 0.112-0.065 0.188zM15.15 29.198c-0.023 0.241-0.112 0.429-0.267 0.565-0.155 0.134-0.362 0.202-0.619 0.202-0.18 0-0.339-0.042-0.476-0.127-0.137-0.086-0.242-0.207-0.316-0.365s-0.113-0.34-0.116-0.548v-0.211c0-0.213 0.038-0.401 0.113-0.563s0.184-0.288 0.324-0.375c0.142-0.088 0.305-0.132 0.49-0.132 0.249 0 0.45 0.068 0.602 0.203s0.241 0.327 0.265 0.574h-0.391c-0.019-0.162-0.066-0.279-0.143-0.351-0.075-0.072-0.187-0.109-0.334-0.109-0.171 0-0.302 0.063-0.394 0.188s-0.138 0.307-0.14 0.548v0.2c0 0.244 0.043 0.43 0.13 0.558s0.216 0.192 0.385 0.192c0.154 0 0.27-0.035 0.348-0.104s0.127-0.185 0.147-0.346h0.391zM17.305 28.863c0 0.221-0.038 0.416-0.115 0.583-0.077 0.167-0.186 0.295-0.329 0.385-0.142 0.089-0.305 0.133-0.49 0.133-0.183 0-0.347-0.044-0.49-0.133-0.143-0.090-0.253-0.218-0.332-0.383-0.078-0.166-0.117-0.356-0.118-0.573v-0.127c0-0.22 0.039-0.415 0.116-0.583s0.189-0.297 0.33-0.386c0.143-0.090 0.306-0.135 0.49-0.135s0.347 0.044 0.489 0.133c0.143 0.088 0.253 0.215 0.33 0.382 0.078 0.165 0.117 0.358 0.118 0.579v0.126zM16.913 28.745c0-0.25-0.048-0.442-0.143-0.576-0.094-0.133-0.228-0.2-0.402-0.2-0.17 0-0.302 0.067-0.399 0.2-0.095 0.132-0.144 0.32-0.146 0.563v0.13c0 0.248 0.048 0.44 0.144 0.576 0.097 0.136 0.232 0.203 0.403 0.203 0.174 0 0.307-0.066 0.4-0.199 0.094-0.132 0.141-0.326 0.141-0.58v-0.118z"></path>
        </symbol>
        <symbol id="icon-Group" viewBox="0 0 30 32">
            <path fill="#212121" style="fill: var(--color3, #212121)" d="M29.859 22.098l-8.443-8.505 0.937-4.615c0.242 0.094 0.499 0.144 0.758 0.146h0.006c1.192 0.014 2.17-0.941 2.184-2.133s-0.941-2.17-2.133-2.184c-1.192-0.014-2.17 0.941-2.184 2.133-0.003 0.255 0.039 0.509 0.125 0.749l-4.96 0.605-8.091-8.133c-0.099-0.101-0.235-0.159-0.377-0.16-0.14 0.001-0.274 0.056-0.373 0.155l-1.513 1.504c-0.208 0.208-0.208 0.546 0 0.754l0.814 0.826c-3.153 5.798-2.129 12.978 2.519 17.663 0.043 0.041 0.092 0.074 0.146 0.098-0.034 0.18-0.051 0.364-0.052 0.547v6.187h-6.4c-1.472 0.002-2.665 1.195-2.667 2.667v1.067c0 0.295 0.239 0.533 0.533 0.533h24.533c0.295 0 0.533-0.239 0.533-0.533v-1.067c-0.002-1.472-1.195-2.665-2.667-2.667h-6.4v-2.742c1.003 0.21 2.024 0.317 3.049 0.32 2.458-0.003 4.877-0.615 7.040-1.783l0.818 0.823c0.099 0.101 0.235 0.159 0.377 0.16 0.14-0.001 0.274-0.056 0.373-0.155l1.512-1.504c0.208-0.208 0.208-0.546 0-0.754zM22.366 6.233c0.418-0.415 1.093-0.414 1.508 0.004s0.414 1.093-0.004 1.508c-0.2 0.199-0.47 0.31-0.752 0.31h-0.003c-0.589-0.003-1.064-0.483-1.061-1.072 0.001-0.282 0.114-0.552 0.314-0.751h-0.002zM21.11 9.738l-0.598 2.946-1.175-1.182 1.774-1.763zM20.504 8.836l-1.92 1.909-1.485-1.493 3.405-0.415zM23.090 28.8c0.884 0 1.6 0.716 1.6 1.6v0.533h-23.467v-0.533c0-0.884 0.716-1.6 1.6-1.6h20.267zM15.623 26.667v1.067h-5.333v-1.067h5.333zM10.29 25.6v-4.053c0-1.294 1.196-2.347 2.667-2.347s2.667 1.053 2.667 2.347v4.053h-5.333zM16.69 23.904v-2.357c0-1.882-1.675-3.413-3.733-3.413-1.331-0.020-2.576 0.657-3.281 1.786-4.058-4.274-4.971-10.645-2.279-15.887l18.602 18.708c-2.872 1.461-6.165 1.873-9.309 1.163zM27.979 23.22l-21.057-21.181 0.755-0.752 7.935 7.98c0.004 0 0.006 0.007 0.010 0.010l13.115 13.191-0.757 0.752z"></path>
            <path fill="#2196f3" style="fill: var(--color2, #2196f3)" d="M12.961 20.267h-0.005c-0.884-0.001-1.601 0.714-1.602 1.598s0.714 1.601 1.598 1.602h0.005c0.884 0.001 1.601-0.714 1.602-1.598s-0.714-1.601-1.598-1.602zM13.335 22.245c-0.1 0.1-0.236 0.156-0.378 0.155-0.295-0.002-0.532-0.242-0.53-0.536 0.001-0.141 0.057-0.276 0.157-0.375s0.233-0.154 0.373-0.155c0.295 0.002 0.532 0.241 0.531 0.536-0.001 0.141-0.057 0.276-0.157 0.375h0.005z"></path>
        </symbol>
        <symbol id="icon-diagram1" viewBox="0 0 32 32">
            <path fill="#2196f3" style="fill: var(--color2, #2196f3)" d="M14.926 14.965h1.066v4.798h-1.066v-4.797z"></path>
            <path fill="#2196f3" style="fill: var(--color2, #2196f3)" d="M19.19 17.097h1.066v2.665h-1.066v-2.665z"></path>
            <path fill="#2196f3" style="fill: var(--color2, #2196f3)" d="M10.661 18.696h1.066v1.066h-1.066v-1.066z"></path>
            <path fill="#2196f3" style="fill: var(--color2, #2196f3)" d="M7.463 18.163h1.066v1.599h-1.066v-1.599z"></path>
            <path fill="#212121" style="fill: var(--color3, #212121)" d="M1.599 28.291h25.587c0.883 0 1.599-0.716 1.599-1.599v-2.132c0-0.883-0.716-1.599-1.599-1.599h-0.533v-13.293l3.028-2.868c0.703 0.346 1.553 0.136 2.013-0.499s0.396-1.508-0.152-2.068-1.42-0.644-2.065-0.198c-0.644 0.446-0.873 1.292-0.542 2.002l-2.281 2.163v-1.23c0-0.883-0.716-1.599-1.599-1.599h-21.322c-0.883 0-1.599 0.716-1.599 1.599v15.992h-0.533c-0.883 0-1.599 0.716-1.599 1.599v2.132c0 0.883 0.716 1.599 1.599 1.599zM30.384 4.837c0.294 0 0.533 0.239 0.533 0.533s-0.239 0.533-0.533 0.533c-0.294 0-0.533-0.239-0.533-0.533s0.239-0.533 0.533-0.533zM3.198 6.969c0-0.294 0.239-0.533 0.533-0.533h21.322c0.294 0 0.533 0.239 0.533 0.533v2.239l-1.066 1.013v-2.186c0-0.294-0.239-0.533-0.533-0.533h-19.19c-0.294 0-0.533 0.239-0.533 0.533v13.326c0 0.294 0.239 0.533 0.533 0.533h19.19c0.294 0 0.533-0.239 0.533-0.533v-9.674l1.066-1.010v12.284h-22.388v-15.992zM7.996 13.899c-0.721-0.002-1.354 0.478-1.546 1.174s0.105 1.433 0.725 1.801c0.62 0.368 1.41 0.276 1.928-0.226l1.853 0.93c0.215 0.108 0.476 0.057 0.636-0.123l3.939-4.431 3.872 2.901c0.208 0.156 0.498 0.139 0.686-0.039l3.365-3.188v8.131h-18.124v-12.26h18.124v2.66l-3.771 3.572-3.904-2.927c-0.222-0.166-0.534-0.135-0.718 0.072l-3.993 4.493-1.493-0.746c0.011-0.064 0.018-0.129 0.020-0.193 0-0.883-0.716-1.599-1.599-1.599zM8.529 15.498c0 0.294-0.239 0.533-0.533 0.533s-0.533-0.239-0.533-0.533c0-0.294 0.239-0.533 0.533-0.533s0.533 0.239 0.533 0.533zM11.727 24.026h5.331v0.533c0 0.294-0.239 0.533-0.533 0.533h-4.264c-0.294 0-0.533-0.239-0.533-0.533v-0.533zM1.066 24.56c0-0.294 0.239-0.533 0.533-0.533h9.062v0.533c0 0.883 0.716 1.599 1.599 1.599h4.264c0.883 0 1.599-0.716 1.599-1.599v-0.533h9.062c0.294 0 0.533 0.239 0.533 0.533v2.132c0 0.294-0.239 0.533-0.533 0.533h-25.587c-0.294 0-0.533-0.239-0.533-0.533v-2.132z"></path>
        </symbol>
        <symbol id="icon-clock1" viewBox="0 0 32 32">
            <path fill="#212121" style="fill: var(--color3, #212121)" d="M31.297 15.301c-0.002-8.452-6.855-15.303-15.308-15.301s-15.303 6.855-15.301 15.308c0.001 6.658 4.307 12.551 10.649 14.576 0.061 0.019 0.124 0.029 0.187 0.029 0.121-0 0.239-0.032 0.343-0.094 0.135-0.080 0.236-0.207 0.283-0.356l3.865-12.25c1.057-0.005 1.909-0.866 1.903-1.923s-0.866-1.909-1.923-1.903c-0.284 0.001-0.565 0.067-0.82 0.191l-5.106-5.107c-0.253-0.245-0.657-0.238-0.902 0.016-0.239 0.247-0.239 0.639 0 0.886l5.103 5.109c-0.392 0.799-0.168 1.764 0.536 2.309l-3.683 11.673c-7.278-2.681-11.004-10.754-8.323-18.032s10.754-11.004 18.032-8.323c7.278 2.681 11.004 10.754 8.324 18.032-1.31 3.556-4.001 6.431-7.462 7.973l-0.398-1.874c-0.073-0.344-0.411-0.565-0.756-0.492-0.109 0.023-0.209 0.074-0.292 0.148l-3.837 3.426c-0.263 0.234-0.287 0.637-0.052 0.9 0.076 0.085 0.174 0.149 0.283 0.184l4.899 1.563c0.335 0.108 0.694-0.077 0.802-0.412 0.034-0.106 0.040-0.219 0.017-0.328l-0.391-1.839c5.664-2.388 9.342-7.942 9.329-14.089zM15.992 14.664c0.352 0 0.638 0.286 0.638 0.638s-0.286 0.638-0.638 0.638c-0.352 0-0.638-0.285-0.638-0.638s0.285-0.638 0.638-0.638zM18.093 29.528l2.184-1.948 0.603 2.84-2.787-0.892z"></path>
            <path fill="#2196f3" style="fill: var(--color2, #2196f3)" d="M15.354 3.185v1.275c0 0.352 0.285 0.638 0.638 0.638s0.638-0.285 0.638-0.638v-1.275c0-0.352-0.286-0.638-0.638-0.638s-0.638 0.286-0.638 0.638z"></path>
            <path fill="#2196f3" style="fill: var(--color2, #2196f3)" d="M3.876 14.664c-0.352 0-0.638 0.286-0.638 0.638s0.285 0.638 0.638 0.638h1.275c0.352 0 0.638-0.285 0.638-0.638s-0.285-0.638-0.638-0.638h-1.275z"></path>
            <path fill="#2196f3" style="fill: var(--color2, #2196f3)" d="M28.108 15.939c0.352 0 0.638-0.285 0.638-0.638s-0.285-0.638-0.638-0.638h-1.275c-0.352 0-0.638 0.286-0.638 0.638s0.286 0.638 0.638 0.638h1.275z"></path>
        </symbol>
        <symbol id="icon-astronaut1" viewBox="0 0 32 32">
            <path fill="#2196f3" style="fill: var(--color2, #2196f3)" d="M31.974 4.524c-0.063-0.193-0.229-0.333-0.43-0.363l-1.91-0.278-0.855-1.731c-0.179-0.365-0.777-0.365-0.956 0l-0.855 1.731-1.91 0.278c-0.201 0.029-0.367 0.17-0.431 0.363-0.062 0.193-0.011 0.405 0.135 0.547l1.383 1.348-0.326 1.903c-0.034 0.2 0.048 0.402 0.212 0.522 0.166 0.121 0.382 0.135 0.562 0.040l1.709-0.899 1.709 0.899c0.078 0.041 0.164 0.061 0.249 0.061 0.11 0 0.221-0.034 0.314-0.102 0.164-0.119 0.246-0.322 0.212-0.522l-0.326-1.903 1.383-1.348c0.145-0.142 0.197-0.354 0.135-0.547zM29.511 5.851c-0.125 0.122-0.183 0.299-0.153 0.472l0.191 1.114-1-0.526c-0.078-0.041-0.163-0.061-0.249-0.061s-0.17 0.020-0.249 0.061l-1.001 0.526 0.191-1.114c0.030-0.173-0.028-0.349-0.153-0.472l-0.81-0.789 1.119-0.163c0.174-0.025 0.324-0.134 0.402-0.292l0.5-1.013 0.5 1.013c0.078 0.157 0.228 0.267 0.402 0.292l1.119 0.163-0.809 0.789z"></path>
            <path fill="#2196f3" style="fill: var(--color2, #2196f3)" d="M26.134 20.522h-1.067v1.067h1.067v-1.067z"></path>
            <path fill="#2196f3" style="fill: var(--color2, #2196f3)" d="M26.134 22.656h-1.067v1.067h1.067v-1.067z"></path>
            <path fill="#2196f3" style="fill: var(--color2, #2196f3)" d="M27.2 21.589h-1.067v1.067h1.067v-1.067z"></path>
            <path fill="#2196f3" style="fill: var(--color2, #2196f3)" d="M25.067 21.589h-1.067v1.067h1.067v-1.067z"></path>
            <path fill="#2196f3" style="fill: var(--color2, #2196f3)" d="M22.4 26.389h-1.067v1.067h1.067v-1.067z"></path>
            <path fill="#2196f3" style="fill: var(--color2, #2196f3)" d="M22.4 28.522h-1.067v1.067h1.067v-1.067z"></path>
            <path fill="#2196f3" style="fill: var(--color2, #2196f3)" d="M23.467 27.456h-1.067v1.067h1.067v-1.067z"></path>
            <path fill="#2196f3" style="fill: var(--color2, #2196f3)" d="M21.333 27.456h-1.067v1.067h1.067v-1.067z"></path>
            <path fill="#2196f3" style="fill: var(--color2, #2196f3)" d="M16 24.256h-1.067v1.067h1.067v-1.067z"></path>
            <path fill="#2196f3" style="fill: var(--color2, #2196f3)" d="M16 26.389h-1.067v1.067h1.067v-1.067z"></path>
            <path fill="#2196f3" style="fill: var(--color2, #2196f3)" d="M17.067 25.322h-1.067v1.067h1.067v-1.067z"></path>
            <path fill="#2196f3" style="fill: var(--color2, #2196f3)" d="M14.933 25.322h-1.067v1.067h1.067v-1.067z"></path>
            <path fill="#2196f3" style="fill: var(--color2, #2196f3)" d="M5.867 6.122h-1.067v1.067h1.067v-1.067z"></path>
            <path fill="#2196f3" style="fill: var(--color2, #2196f3)" d="M5.867 8.255h-1.067v1.067h1.067v-1.067z"></path>
            <path fill="#2196f3" style="fill: var(--color2, #2196f3)" d="M6.933 7.189h-1.067v1.067h1.067v-1.067z"></path>
            <path fill="#2196f3" style="fill: var(--color2, #2196f3)" d="M4.8 7.189h-1.067v1.067h1.067v-1.067z"></path>
            <path fill="#212121" style="fill: var(--color3, #212121)" d="M24.715 14.159c-0.287-0.388-0.709-0.637-1.188-0.705-0.481-0.068-0.956 0.058-1.34 0.352l-1.252 0.96-1.898 1.417-1.358-0.541c2.421-1.086 4.114-3.508 4.114-6.32 0-3.823-3.123-6.933-6.961-6.933s-6.961 3.11-6.961 6.933c0 1.386 0.414 2.674 1.12 3.758l-2.764-0.024c-0.002 0-0.003 0-0.005 0-0.009 0-0.015 0.004-0.023 0.005-0.053 0.002-0.105 0.013-0.155 0.031-0.013 0.005-0.026 0.008-0.038 0.013-0.006 0.003-0.013 0.003-0.019 0.006l-3.233 1.596c-0.001 0-0.001 0-0.001 0.001l-1.893 0.911c-0.021 0.009-0.042 0.021-0.063 0.035-0.755 0.502-1.012 1.489-0.598 2.295 0.22 0.429 0.595 0.745 1.056 0.889 0.178 0.055 0.359 0.083 0.539 0.083 0.29 0 0.577-0.071 0.839-0.211l1.388-0.738 2.264-1.169 1.357-0.008-5.442 5.416c-0.001 0.001-0.001 0.001-0.002 0.001l-1.339 1.333c-0.316 0.315-0.49 0.732-0.49 1.178s0.174 0.863 0.49 1.179c0.325 0.323 0.752 0.485 1.179 0.485s0.854-0.162 1.18-0.485l1.314-1.309 1.741-1.3 0.901 0.897-1.762 1.754c-0 0.001-0.001 0.001-0.002 0.001l-1.339 1.333c-0.316 0.315-0.49 0.732-0.49 1.178s0.174 0.863 0.49 1.179c0.325 0.323 0.753 0.485 1.18 0.485s0.855-0.162 1.18-0.485l3.482-3.467c0.001-0.001 0.001-0.001 0.001-0.002l1.010-1-0.004-0.004c0.006-0.006 0.015-0.009 0.022-0.015l5.166-5.658 3.471 0.494c0.025 0.004 0.050 0.005 0.075 0.005 0.065 0 0.127-0.015 0.187-0.038 0.018-0.006 0.033-0.015 0.050-0.023 0.019-0.010 0.039-0.015 0.058-0.027l3.213-2.133c0.012-0.008 0.018-0.021 0.029-0.029 0.013-0.010 0.029-0.014 0.041-0.026l1.271-1.191c0.662-0.62 0.753-1.635 0.212-2.362zM2.13 17.77c-0.173 0.093-0.37 0.111-0.558 0.052-0.187-0.058-0.338-0.186-0.427-0.358-0.161-0.314-0.068-0.695 0.214-0.902l1.314-0.632 0.449 1.313-0.992 0.527zM5.628 15.942l-1.548 0.8-0.439-1.283 2.027-1.001-0.040 1.484zM20.727 9.322c0 0.918-0.219 1.785-0.599 2.559l-4.181-1.899c-0.044-0.573-0.341-1.075-0.788-1.388l1.464-4.86c2.378 0.756 4.105 2.974 4.105 5.588zM8.938 9.322c0-3.235 2.644-5.867 5.894-5.867 0.253 0 0.5 0.021 0.745 0.052l-1.432 4.754c-0.019-0.001-0.037-0.006-0.057-0.006-1.033 0-1.873 0.837-1.873 1.867s0.84 1.867 1.873 1.867c0.694 0 1.294-0.383 1.618-0.945l3.862 1.755c-1.075 1.446-2.795 2.39-4.737 2.39-3.25 0-5.894-2.632-5.894-5.867zM14.894 10.122c0 0.441-0.362 0.8-0.806 0.8s-0.806-0.359-0.806-0.8c0-0.441 0.362-0.8 0.806-0.8s0.806 0.359 0.806 0.8zM2.465 25.146c-0.236 0.234-0.619 0.234-0.854 0.001-0.114-0.114-0.176-0.263-0.176-0.423s0.062-0.309 0.176-0.421l0.962-0.959 0.851 0.848-0.959 0.955zM5.679 28.88c-0.236 0.234-0.619 0.235-0.855 0.001-0.114-0.114-0.176-0.263-0.176-0.423s0.062-0.309 0.176-0.421l0.963-0.959 0.852 0.848-0.96 0.955zM9.16 25.411c-0.001 0-0.001 0-0.002 0.001l-1.765 1.76-0.852-0.848 1.763-1.755c0 0 0 0 0-0s0.001-0.001 0.002-0.001c0.040-0.040 0.065-0.088 0.090-0.135 0.007-0.014 0.020-0.026 0.026-0.040 0.017-0.041 0.019-0.085 0.026-0.129 0.003-0.025 0.014-0.047 0.014-0.073 0-0.036-0.013-0.070-0.020-0.106-0.006-0.032-0.006-0.065-0.019-0.095-0.020-0.050-0.055-0.094-0.091-0.138-0.010-0.012-0.014-0.027-0.025-0.038 0 0 0 0-0.001 0s-0.001-0.002-0.001-0.002l-1.607-1.6c-0.017-0.017-0.039-0.024-0.058-0.038-0.028-0.022-0.055-0.042-0.087-0.058-0.030-0.015-0.061-0.024-0.093-0.033-0.034-0.010-0.067-0.017-0.103-0.020-0.033-0.002-0.063 0.001-0.095 0.005-0.036 0.004-0.069 0.009-0.104 0.020-0.034 0.011-0.063 0.027-0.094 0.045-0.020 0.011-0.042 0.015-0.061 0.029l-1.773 1.324-0.901-0.897 2.399-2.386 4.361 4.289-0.928 0.919zM15.979 18.394c-0.015-0.002-0.030 0.004-0.045 0.003-0.039-0.002-0.076 0.001-0.115 0.007-0.030 0.005-0.059 0.011-0.088 0.021-0.034 0.012-0.065 0.028-0.097 0.047-0.030 0.018-0.057 0.037-0.083 0.061-0.013 0.011-0.028 0.017-0.040 0.029l-4.698 5.146-4.328-4.257 2.833-2.818c0.209-0.208 0.21-0.546 0.002-0.755-0.105-0.105-0.243-0.157-0.381-0.156v-0.001l-2.219 0.013 0.028-1.607 3.104 0.027c1.265 1.294 3.029 2.101 4.981 2.101 0.437 0 0.864-0.045 1.279-0.123 0.040 0.032 0.079 0.065 0.13 0.085l2.41 0.96 0.152 0.758 0.178 0.885-3.003-0.427zM20.020 18.572l-0.313-1.558 1.446-1.080 0.947 1.257-2.080 1.381zM23.774 15.741l-0.838 0.785-0.931-1.236 0.831-0.637c0.155-0.119 0.351-0.168 0.543-0.143 0.193 0.027 0.364 0.128 0.48 0.284 0.217 0.292 0.18 0.699-0.085 0.947z"></path>
            <path fill="#212121" style="fill: var(--color3, #212121)" d="M13.602 18.544l-2.143-2.133c-0.207-0.207-0.545-0.207-0.753 0l-2.142 2.133c-0.1 0.101-0.157 0.236-0.157 0.378s0.056 0.278 0.157 0.378l2.142 2.133c0.104 0.103 0.241 0.155 0.377 0.155s0.273-0.052 0.376-0.155l2.143-2.133c0.1-0.1 0.157-0.236 0.157-0.378s-0.057-0.278-0.157-0.378zM11.083 20.303l-1.387-1.381 1.387-1.381 1.387 1.381-1.387 1.381z"></path>
            <path fill="#212121" style="fill: var(--color3, #212121)" d="M17.164 5.071l-0.258 1.036c0.071 0.018 1.738 0.452 1.738 2.149h1.067c-0-2.017-1.666-2.965-2.547-3.185z"></path>
            <path fill="#212121" style="fill: var(--color3, #212121)" d="M19.711 9.322h-1.067v1.067h1.067v-1.067z"></path>
        </symbol>
        <symbol id="icon-Vector" viewBox="0 0 32 32">
            <path d="M32 3.223l-3.223-3.223-12.777 12.777-12.777-12.777-3.223 3.223 12.777 12.777-12.777 12.777 3.223 3.223 12.777-12.777 12.777 12.777 3.223-3.223-12.777-12.777 12.777-12.777z"></path>
        </symbol>
    </defs>
</svg>
<svg aria-hidden="true" style="position: absolute; width: 0; height: 0; overflow: hidden;" version="1.1" xmlns="http://www.w3.org/2000/svg" xmlns:xlink="http://www.w3.org/1999/xlink">
    <defs>
        <symbol id="icon-closeblack" viewBox="0 0 32 32">
            <path d="M26.667 7.303l-1.97-1.97-7.808 7.808-7.808-7.808-1.97 1.97 7.808 7.808-7.808 7.808 1.97 1.97 7.808-7.808 7.808 7.808 1.97-1.97-7.808-7.808 7.808-7.808z"></path>
        </symbol>
    </defs>
</svg>